HIERARCHY
ROOT Hip
{
  OFFSET 0.000000 0.000000 0.000000
  CHANNELS 6 Xposition Yposition Zposition Zrotation Xrotation Yrotation
  JOINT RHip
  {
    OFFSET 0.000000 0.000000 0.000000
    CHANNELS 3 Xposition Yposition Zposition
    End Site
    {
      OFFSET 0.000000 0.100000 0.000000
    }
  }
  JOINT RKnee
  {
    OFFSET 0.000000 0.000000 0.000000
    CHANNELS 3 Xposition Yposition Zposition
    End Site
    {
      OFFSET 0.000000 0.100000 0.000000
    }
  }
  JOINT RFoot
  {
    OFFSET 0.000000 0.000000 0.000000
    CHANNELS 3 Xposition Yposition Zposition
    End Site
    {
      OFFSET 0.000000 0.100000 0.000000
    }
  }
  JOINT LHip
  {
    OFFSET 0.000000 0.000000 0.000000
    CHANNELS 3 Xposition Yposition Zposition
    End Site
    {
      OFFSET 0.000000 0.100000 0.000000
    }
  }
  JOINT LKnee
  {
    OFFSET 0.000000 0.000000 0.000000
    CHANNELS 3 Xposition Yposition Zposition
    End Site
    {
      OFFSET 0.000000 0.100000 0.000000
    }
  }
  JOINT LFoot
  {
    OFFSET 0.000000 0.000000 0.000000
    CHANNELS 3 Xposition Yposition Zposition
    End Site
    {
      OFFSET 0.000000 0.100000 0.000000
    }
  }
  JOINT Spine
  {
    OFFSET 0.000000 0.000000 0.000000
    CHANNELS 3 Xposition Yposition Zposition
    End Site
    {
      OFFSET 0.000000 0.100000 0.000000
    }
  }
  JOINT Thorax
  {
    OFFSET 0.000000 0.000000 0.000000
    CHANNELS 3 Xposition Yposition Zposition
    End Site
    {
      OFFSET 0.000000 0.100000 0.000000
    }
  }
  JOINT Nose
  {
    OFFSET 0.000000 0.000000 0.000000
    CHANNELS 3 Xposition Yposition Zposition
    End Site
    {
      OFFSET 0.000000 0.100000 0.000000
    }
  }
  JOINT Head
  {
    OFFSET 0.000000 0.000000 0.000000
    CHANNELS 3 Xposition Yposition Zposition
    End Site
    {
      OFFSET 0.000000 0.100000 0.000000
    }
  }
  JOINT LShoulder
  {
    OFFSET 0.000000 0.000000 0.000000
    CHANNELS 3 Xposition Yposition Zposition
    End Site
    {
      OFFSET 0.000000 0.100000 0.000000
    }
  }
  JOINT LElbow
  {
    OFFSET 0.000000 0.000000 0.000000
    CHANNELS 3 Xposition Yposition Zposition
    End Site
    {
      OFFSET 0.000000 0.100000 0.000000
    }
  }
  JOINT LWrist
  {
    OFFSET 0.000000 0.000000 0.000000
    CHANNELS 3 Xposition Yposition Zposition
    End Site
    {
      OFFSET 0.000000 0.100000 0.000000
    }
  }
  JOINT RShoulder
  {
    OFFSET 0.000000 0.000000 0.000000
    CHANNELS 3 Xposition Yposition Zposition
    End Site
    {
      OFFSET 0.000000 0.100000 0.000000
    }
  }
  JOINT RElbow
  {
    OFFSET 0.000000 0.000000 0.000000
    CHANNELS 3 Xposition Yposition Zposition
    End Site
    {
      OFFSET 0.000000 0.100000 0.000000
    }
  }
  JOINT RWrist
  {
    OFFSET 0.000000 0.000000 0.000000
    CHANNELS 3 Xposition Yposition Zposition
    End Site
    {
      OFFSET 0.000000 0.100000 0.000000
    }
  }
}
MOTION
Frames: 21
Frame Time: 0.040000
-0.090167 1.100713 0.000003 0.000000 0.000000 0.000000 0.160735 0.030748 0.042391 0.328142 -0.311508 -0.490158 0.265430 -0.786748 -0.634956 -0.160745 -0.030682 -0.042384 -0.142831 -0.409809 -0.640672 -0.073079 -0.902691 -0.707841 -0.007938 0.240072 -0.148594 -0.016582 0.545794 -0.347444 0.125888 0.508451 -0.489784 0.034180 0.649925 -0.488364 -0.176214 0.482971 -0.430702 0.014879 0.451701 -0.726583 0.150261 0.632812 -0.638931 0.161068 0.561486 -0.259492 0.427708 0.568051 -0.353994 0.285505 0.649639 -0.658174
-0.091538 1.099216 0.000007 0.000000 0.000000 0.000000 0.161031 0.032285 0.044366 0.337251 -0.309122 -0.488150 0.273297 -0.786811 -0.628342 -0.161041 -0.032220 -0.044366 -0.138783 -0.408158 -0.639095 -0.073552 -0.904846 -0.691888 -0.007071 0.237881 -0.152329 -0.013031 0.542886 -0.354886 0.132237 0.504014 -0.495340 0.041636 0.646292 -0.496510 -0.174440 0.478192 -0.441425 0.017625 0.457244 -0.742897 0.142224 0.649064 -0.645837 0.164795 0.561815 -0.264375 0.426876 0.577871 -0.363155 0.274592 0.664205 -0.663877
-0.093049 1.096997 0.000011 0.000000 0.000000 0.000000 0.161110 0.033645 0.045843 0.345311 -0.305563 -0.488148 0.279558 -0.784860 -0.628346 -0.161119 -0.033581 -0.045851 -0.134398 -0.405217 -0.639677 -0.073159 -0.905421 -0.684853 -0.005370 0.234991 -0.156046 -0.008805 0.537947 -0.362402 0.138258 0.496884 -0.501035 0.048708 0.639541 -0.504684 -0.171792 0.471676 -0.451395 0.022288 0.458090 -0.755630 0.137765 0.657739 -0.653943 0.169652 0.559972 -0.269503 0.427214 0.583566 -0.374007 0.267085 0.670887 -0.670703
-0.094558 1.093574 0.000014 0.000000 0.000000 0.000000 0.160839 0.034728 0.046974 0.352486 -0.300067 -0.490379 0.284636 -0.781302 -0.635495 -0.160848 -0.034664 -0.046987 -0.129918 -0.401438 -0.642608 -0.071314 -0.904774 -0.688955 -0.003083 0.231827 -0.159941 -0.004389 0.531744 -0.370541 0.143563 0.487660 -0.507802 0.055145 0.630596 -0.513995 -0.168786 0.464276 -0.460496 0.026626 0.454885 -0.763393 0.136033 0.658006 -0.663976 0.174855 0.556203 -0.275320 0.428012 0.585815 -0.385516 0.262689 0.670741 -0.678677
-0.096125 1.088609 0.000016 0.000000 0.000000 0.000000 0.160458 0.035655 0.047776 0.359062 -0.293887 -0.494300 0.289782 -0.778059 -0.648368 -0.160467 -0.035592 -0.047792 -0.125494 -0.397880 -0.647041 -0.068122 -0.904585 -0.701077 -0.000641 0.228874 -0.164013 0.000340 0.525551 -0.379591 0.148324 0.477625 -0.515945 0.061163 0.620904 -0.524730 -0.165873 0.457084 -0.468777 0.027959 0.448776 -0.768203 0.136726 0.650464 -0.679913 0.180535 0.551261 -0.282528 0.429951 0.585547 -0.399771 0.261212 0.665558 -0.691651
-0.097931 1.082413 0.000017 0.000000 0.000000 0.000000 0.160043 0.036622 0.048393 0.364789 -0.289569 -0.499188 0.296131 -0.776519 -0.661431 -0.160053 -0.036560 -0.048411 -0.121034 -0.395321 -0.652185 -0.064106 -0.906016 -0.714459 0.001393 0.226369 -0.168286 0.005010 0.519811 -0.389548 0.152377 0.467495 -0.525350 0.066230 0.611297 -0.536912 -0.163471 0.450647 -0.476355 0.025416 0.440143 -0.771305 0.138461 0.635039 -0.704483 0.186342 0.545560 -0.291491 0.433867 0.582344 -0.417746 0.263074 0.655039 -0.712589
-0.100139 1.075654 0.000016 0.000000 0.000000 0.000000 0.159467 0.037652 0.048763 0.368858 -0.288335 -0.504783 0.304221 -0.776368 -0.670522 -0.159477 -0.037590 -0.048780 -0.116633 -0.393727 -0.657433 -0.059191 -0.908641 -0.724853 0.002610 0.224075 -0.172368 0.008559 0.513757 -0.399400 0.155144 0.457277 -0.534931 0.069600 0.601654 -0.549371 -0.161905 0.444608 -0.482426 0.021178 0.428387 -0.771148 0.139901 0.612207 -0.732772 0.191129 0.538994 -0.301630 0.439789 0.575048 -0.437766 0.268660 0.638213 -0.739066
-0.102899 1.068803 0.000015 0.000000 0.000000 0.000000 0.158713 0.038486 0.048606 0.370929 -0.289306 -0.511641 0.313793 -0.776667 -0.680083 -0.158722 -0.038424 -0.048621 -0.112616 -0.392450 -0.661582 -0.053697 -0.910892 -0.734286 0.003239 0.221294 -0.176650 0.010796 0.506175 -0.409871 0.156943 0.446302 -0.545043 0.071951 0.591048 -0.562060 -0.160860 0.437414 -0.488321 0.018149 0.411082 -0.770560 0.141799 0.581721 -0.762067 0.194544 0.531253 -0.313643 0.447371 0.561976 -0.458661 0.278409 0.614846 -0.765869
-0.106287 1.062120 0.000013 0.000000 0.000000 0.000000 0.158076 0.038765 0.047659 0.371497 -0.290775 -0.520819 0.323825 -0.777227 -0.698690 -0.158085 -0.038702 -0.047669 -0.109503 -0.390419 -0.663462 -0.048800 -0.912012 -0.750534 0.003808 0.217628 -0.181897 0.012622 0.496533 -0.422484 0.158570 0.433267 -0.557011 0.074545 0.578082 -0.576176 -0.159620 0.427734 -0.496345 0.017799 0.385550 -0.773477 0.145332 0.541719 -0.792257 0.197482 0.521977 -0.328172 0.456606 0.540898 -0.478560 0.292305 0.584065 -0.787923
-0.110233 1.055926 0.000011 0.000000 0.000000 0.000000 0.157860 0.038418 0.045851 0.371307 -0.291367 -0.531688 0.333265 -0.778882 -0.728495 -0.157870 -0.038355 -0.045857 -0.107678 -0.387072 -0.663054 -0.044968 -0.912541 -0.780257 0.004600 0.213268 -0.187356 0.015122 0.485081 -0.435775 0.160681 0.417228 -0.569609 0.078606 0.561749 -0.590524 -0.157508 0.415409 -0.505239 0.020041 0.351399 -0.778681 0.151545 0.492210 -0.818588 0.201263 0.510917 -0.342983 0.467854 0.510759 -0.494039 0.309829 0.544300 -0.802548
-0.114411 1.050373 0.000009 0.000000 0.000000 0.000000 0.158022 0.037762 0.043552 0.370959 -0.290885 -0.542137 0.340951 -0.782081 -0.763696 -0.158032 -0.037698 -0.043555 -0.106581 -0.382742 -0.661923 -0.041828 -0.913492 -0.822803 0.005747 0.208515 -0.191045 0.019297 0.472334 -0.445664 0.164112 0.398281 -0.578926 0.085157 0.542464 -0.601083 -0.153737 0.400747 -0.510638 0.023935 0.311451 -0.780391 0.161068 0.436151 -0.835338 0.207056 0.498163 -0.353846 0.480561 0.472468 -0.501658 0.330330 0.494694 -0.809488
-0.118336 1.045334 0.000006 0.000000 0.000000 0.000000 0.158212 0.037277 0.041163 0.370570 -0.290367 -0.550686 0.345400 -0.786191 -0.800434 -0.158223 -0.037212 -0.041161 -0.104970 -0.377793 -0.661229 -0.038818 -0.914898 -0.872823 0.007438 0.203563 -0.191847 0.025515 0.458776 -0.449870 0.168796 0.377002 -0.582802 0.094056 0.521413 -0.605653 -0.148001 0.384546 -0.510216 0.028028 0.269476 -0.772906 0.173142 0.374704 -0.839918 0.214951 0.483885 -0.358797 0.491832 0.427355 -0.499436 0.351823 0.436459 -0.807782
-0.121861 1.040811 0.000004 0.000000 0.000000 0.000000 0.158320 0.037243 0.039047 0.370609 -0.290701 -0.556959 0.346954 -0.789442 -0.837259 -0.158332 -0.037177 -0.039040 -0.102459 -0.372632 -0.660724 -0.035488 -0.915823 -0.923326 0.010014 0.198551 -0.189955 0.033580 0.444799 -0.449032 0.173734 0.354051 -0.582153 0.104303 0.499526 -0.605153 -0.140912 0.367979 -0.505230 0.030364 0.226825 -0.756859 0.186662 0.307666 -0.833532 0.224442 0.468519 -0.358992 0.498564 0.377253 -0.488650 0.372397 0.372139 -0.798540
-0.125252 1.037210 0.000002 0.000000 0.000000 0.000000 0.158671 0.037381 0.037224 0.372434 -0.291858 -0.560446 0.346945 -0.790183 -0.871597 -0.158683 -0.037313 -0.037214 -0.100398 -0.367278 -0.658963 -0.032623 -0.915557 -0.970479 0.013353 0.193880 -0.185305 0.042975 0.430960 -0.443191 0.177757 0.330690 -0.576903 0.114449 0.477519 -0.599227 -0.133806 0.352124 -0.496058 0.028529 0.183622 -0.736402 0.200391 0.234478 -0.817951 0.235121 0.452980 -0.354926 0.499488 0.325823 -0.473904 0.391409 0.303268 -0.785199
-0.128496 1.034774 0.000000 0.000000 0.000000 0.000000 0.159520 0.037284 0.035702 0.377667 -0.292336 -0.560601 0.345818 -0.788013 -0.898454 -0.159532 -0.037215 -0.035688 -0.099986 -0.360287 -0.655259 -0.031743 -0.912668 -1.012751 0.016631 0.189430 -0.178093 0.052720 0.417136 -0.431953 0.180498 0.307817 -0.565935 0.123415 0.455674 -0.586656 -0.127882 0.336659 -0.482433 0.020229 0.139160 -0.711521 0.211799 0.153928 -0.788383 0.246098 0.437647 -0.345961 0.494703 0.277063 -0.457634 0.409326 0.230163 -0.764362
-0.131018 1.033484 -0.000003 0.000000 0.000000 0.000000 0.160827 0.036901 0.034957 0.386697 -0.291099 -0.557711 0.344827 -0.783691 -0.912804 -0.160839 -0.036830 -0.034937 -0.099541 -0.351651 -0.651748 -0.032012 -0.906611 -1.045636 0.019340 0.184271 -0.169207 0.061831 0.402689 -0.415582 0.182368 0.285878 -0.549503 0.130612 0.434449 -0.568248 -0.123137 0.320474 -0.464912 0.006126 0.092119 -0.677049 0.218481 0.065937 -0.737430 0.255911 0.422228 -0.331381 0.485795 0.233100 -0.434327 0.427166 0.153985 -0.725137
-0.132588 1.033344 -0.000008 0.000000 0.000000 0.000000 0.162172 0.036461 0.035530 0.397492 -0.288469 -0.551824 0.346248 -0.778352 -0.912249 -0.162184 -0.036387 -0.035499 -0.096056 -0.344281 -0.649961 -0.030714 -0.898844 -1.063809 0.021882 0.178416 -0.158658 0.070511 0.387896 -0.394261 0.184095 0.265839 -0.528548 0.136238 0.414650 -0.545752 -0.118326 0.303609 -0.443836 -0.009321 0.043846 -0.630765 0.219779 -0.027793 -0.670798 0.264214 0.406637 -0.310343 0.476438 0.193928 -0.393409 0.446551 0.076809 -0.661032
-0.133378 1.034153 -0.000014 0.000000 0.000000 0.000000 0.162965 0.036011 0.037167 0.407333 -0.283880 -0.543374 0.349757 -0.772307 -0.897664 -0.162976 -0.035935 -0.037124 -0.089520 -0.339679 -0.649823 -0.027898 -0.890177 -1.068112 0.024318 0.173119 -0.146330 0.078468 0.373783 -0.369155 0.185557 0.248334 -0.503713 0.140436 0.396378 -0.520857 -0.113288 0.287269 -0.419984 -0.022573 -0.000322 -0.578352 0.215330 -0.118552 -0.601538 0.270837 0.391480 -0.284221 0.468209 0.159739 -0.334126 0.463779 0.002978 -0.578748
-0.132989 1.035798 -0.000020 0.000000 0.000000 0.000000 0.162920 0.035134 0.038889 0.414477 -0.277692 -0.533830 0.352484 -0.766709 -0.875667 -0.162931 -0.035056 -0.038834 -0.083059 -0.336464 -0.650791 -0.025155 -0.881110 -1.065361 0.026232 0.168674 -0.133344 0.084515 0.360568 -0.342714 0.185932 0.232639 -0.476054 0.142821 0.378848 -0.495389 -0.108883 0.272591 -0.394596 -0.032727 -0.034570 -0.526944 0.205748 -0.191741 -0.536343 0.275206 0.377367 -0.256707 0.461075 0.131859 -0.269053 0.473456 -0.060087 -0.494211
-0.131052 1.038409 -0.000025 0.000000 0.000000 0.000000 0.161996 0.033813 0.039900 0.418371 -0.272137 -0.524392 0.353302 -0.763008 -0.854420 -0.162007 -0.033733 -0.039835 -0.078978 -0.333786 -0.651736 -0.022764 -0.873565 -1.062366 0.027573 0.164523 -0.121368 0.088609 0.348226 -0.318126 0.185092 0.218184 -0.448660 0.143515 0.362123 -0.471853 -0.104885 0.260315 -0.369781 -0.039341 -0.057073 -0.478020 0.192837 -0.239840 -0.474118 0.277499 0.365050 -0.231297 0.454901 0.110357 -0.207846 0.475716 -0.108073 -0.418513
-0.128215 1.041730 -0.000030 0.000000 0.000000 0.000000 0.160490 0.032503 0.039819 0.419452 -0.267928 -0.515962 0.352757 -0.760266 -0.839159 -0.160501 -0.032421 -0.039745 -0.077840 -0.331529 -0.652238 -0.020692 -0.868014 -1.062036 0.028537 0.160490 -0.112006 0.091380 0.337405 -0.298750 0.183182 0.205474 -0.426167 0.142874 0.347366 -0.453411 -0.101144 0.251162 -0.348761 -0.043316 -0.070169 -0.431672 0.178886 -0.266215 -0.414241 0.278523 0.355365 -0.211252 0.448490 0.094238 -0.154544 0.472523 -0.140599 -0.355038
